<svg width="186" height="40" viewBox="0 0 186 40" fill="none" xmlns="http://www.w3.org/2000/svg">
<path d="M29.7857 17.828C29.2822 18.3364 28.8966 18.95 28.6564 19.6249C28.4162 20.3 28.3273 21.0199 28.396 21.7333L28.3721 21.7093C28.4428 22.5492 28.3299 23.3943 28.0414 24.1859C27.753 24.9773 27.296 25.6961 26.7022 26.2921C26.1083 26.888 25.3921 27.3468 24.6033 27.6361C23.8147 27.9256 22.9725 28.0389 22.1358 27.968L22.1597 27.992C21.1588 27.8985 20.1534 28.1171 19.2807 28.618C18.4081 29.1189 17.7106 29.8777 17.2834 30.7911C16.8563 31.7044 16.7201 32.7276 16.8936 33.7215C17.0673 34.7152 17.542 35.6311 18.2532 36.3441C18.9644 37.0572 19.8773 37.5328 20.8677 37.706C21.8581 37.8793 22.8775 37.7417 23.7872 37.3123C24.6969 36.8827 25.4523 36.1821 25.9506 35.3059C26.449 34.4296 26.6659 33.4205 26.5719 32.416L26.5971 32.44C26.5264 31.6003 26.6392 30.7551 26.9277 29.9635C27.2161 29.172 27.6733 28.4532 28.267 27.8572C28.8609 27.2613 29.5771 26.8025 30.3658 26.5132C31.1545 26.2237 31.9966 26.1104 32.8334 26.1813L32.8082 26.1573C33.6258 26.2311 34.4489 26.0965 35.201 25.7661C35.9529 25.4357 36.6098 24.9201 37.1104 24.2672C37.611 23.6143 37.9394 22.8449 38.0648 22.0308C38.1904 21.2165 38.1091 20.3837 37.8285 19.6093C37.5479 18.8351 37.077 18.1444 36.4596 17.6013C35.8423 17.0583 35.0983 16.6804 34.2966 16.5028C33.4949 16.3252 32.6615 16.3535 31.8737 16.5851C31.0858 16.8168 30.3691 17.2443 29.7897 17.828H29.7857Z" fill="#010032"/>
<path d="M19.9838 24.848L19.9586 24.824C20.6698 24.8959 21.388 24.8083 22.0615 24.5675C22.7348 24.3267 23.3465 23.9388 23.8521 23.4317C24.3576 22.9247 24.7448 22.3111 24.9851 21.6355C25.2256 20.9599 25.3134 20.2392 25.2423 19.5253L25.2676 19.5493C25.1969 18.7095 25.3098 17.8644 25.5981 17.0728C25.8865 16.2813 26.3437 15.5625 26.9374 14.9665C27.5313 14.3707 28.2476 13.9119 29.0362 13.6225C29.825 13.333 30.667 13.2198 31.5039 13.2907L31.4786 13.2667C32.4797 13.3611 33.4853 13.1431 34.3585 12.6428C35.2317 12.1425 35.9298 11.384 36.3576 10.4708C36.7854 9.55765 36.9221 8.53428 36.7491 7.54027C36.5761 6.54625 36.1018 5.63001 35.3908 4.91649C34.6798 4.20299 33.7668 3.72693 32.7764 3.55331C31.7859 3.37967 30.7663 3.51688 29.8563 3.94624C28.9464 4.37559 28.1907 5.07619 27.6921 5.95247C27.1935 6.82873 26.9764 7.83803 27.0704 8.84267L27.0465 8.81733C27.1173 9.65719 27.0047 10.5024 26.7164 11.2941C26.4281 12.0857 25.9709 12.8046 25.3772 13.4007C24.7833 13.9965 24.0669 14.4553 23.2782 14.7447C22.4893 15.034 21.6471 15.1471 20.8102 15.076L20.8341 15.1013C20.1229 15.0295 19.4046 15.1171 18.7313 15.3579C18.0579 15.5985 17.4463 15.9865 16.9406 16.4936C16.435 17.0007 16.0479 17.6143 15.8075 18.2899C15.5671 18.9655 15.4793 19.6861 15.5504 20.4L15.5265 20.376C15.5969 21.2157 15.4838 22.0608 15.1954 22.8523C14.9068 23.6436 14.4498 24.3624 13.8561 24.9583C13.2623 25.5541 12.5461 26.0128 11.7575 26.3024C10.9689 26.5919 10.1269 26.7053 9.29017 26.6347L9.31408 26.6587C8.31303 26.5643 7.30734 26.7821 6.43419 27.2825C5.56105 27.7829 4.86295 28.5413 4.43514 29.4545C4.00731 30.3677 3.87058 31.3911 4.0436 32.3851C4.21662 33.3791 4.69097 34.2953 5.40193 35.0088C6.1129 35.7224 7.02587 36.1984 8.01633 36.372C9.0068 36.5456 10.0265 36.4084 10.9364 35.9791C11.8463 35.5497 12.6021 34.8492 13.1006 33.9729C13.5993 33.0965 13.8163 32.0873 13.7223 31.0827L13.7475 31.1067C13.6768 30.2668 13.7898 29.4217 14.0782 28.6301C14.3665 27.8387 14.8237 27.1199 15.4174 26.5239C16.0113 25.928 16.7275 25.4692 17.5161 25.1799C18.3049 24.8904 19.147 24.7771 19.9838 24.848Z" fill="#010032"/>
<path d="M11.08 22.172C11.5836 21.6637 11.9691 21.0501 12.2091 20.3751C12.4491 19.7 12.5376 18.98 12.4684 18.2667L12.4936 18.2907C12.4229 17.4507 12.5358 16.6052 12.8244 15.8135C13.1129 15.0217 13.5703 14.3028 14.1644 13.7068C14.7586 13.1108 15.4751 12.6522 16.2641 12.3629C17.0531 12.0736 17.8956 11.9607 18.7326 12.032L18.7073 12.008C19.708 12.1021 20.7133 11.8841 21.5861 11.3838C22.4588 10.8835 23.1565 10.1252 23.5841 9.21231C24.0117 8.29943 24.1482 7.27643 23.9753 6.28279C23.8023 5.28915 23.328 4.37326 22.6173 3.66C21.9067 2.94675 20.9939 2.47085 20.0039 2.29723C19.0138 2.12359 17.9944 2.26068 17.0849 2.68977C16.1752 3.11887 15.4197 3.8191 14.9212 4.69496C14.4226 5.57083 14.2053 6.57971 14.2991 7.584L14.2752 7.56C14.3459 8.3998 14.233 9.24496 13.9445 10.0365C13.6561 10.828 13.1991 11.5468 12.6053 12.1428C12.0115 12.7387 11.2952 13.1974 10.5065 13.4868C9.71784 13.7763 8.87571 13.8896 8.03891 13.8187L8.06282 13.8427C7.24518 13.7691 6.42225 13.9039 5.6703 14.2344C4.91836 14.5649 4.26171 15.0807 3.76123 15.7337C3.26074 16.3867 2.93261 17.156 2.80722 17.9701C2.68184 18.7844 2.76327 19.6172 3.04396 20.3913C3.32465 21.1656 3.79553 21.8561 4.41296 22.3991C5.03038 22.9421 5.77438 23.3199 6.57602 23.4975C7.37764 23.6749 8.21096 23.6465 8.99876 23.4149C9.78655 23.1832 10.5033 22.7557 11.0827 22.172H11.08Z" fill="#010032"/>
<path d="M52.2363 8.87333H56.1822V28.144H52.2363V8.87333Z" fill="#010032"/>
<path d="M58.4162 21.5453C58.4108 20.1605 58.8149 18.8051 59.5775 17.6509C60.3401 16.4968 61.4269 15.5957 62.7002 15.062C63.9735 14.5281 65.3759 14.3856 66.73 14.6524C68.0841 14.9192 69.3288 15.5832 70.3065 16.5605C71.2842 17.5377 71.9509 18.7843 72.2222 20.1421C72.4935 21.5 72.357 22.9081 71.8302 24.1881C71.3035 25.468 70.41 26.5624 69.2631 27.3323C68.116 28.1023 66.7672 28.5133 65.3872 28.5133C64.4713 28.5239 63.5624 28.3509 62.7137 28.0048C61.865 27.6587 61.0937 27.1463 60.4447 26.4976C59.7955 25.8488 59.2819 25.0767 58.9337 24.2264C58.5853 23.3761 58.4094 22.4647 58.4162 21.5453ZM68.4124 21.5453C68.3959 20.9484 68.2044 20.3696 67.8621 19.8812C67.5196 19.3929 67.0413 19.0167 66.487 18.7997C65.9326 18.5827 65.3269 18.5344 64.7454 18.6611C64.1639 18.7877 63.6324 19.0835 63.2175 19.5116C62.8027 19.9396 62.5227 20.4809 62.4128 21.0679C62.3028 21.6547 62.3675 22.2611 62.5991 22.8112C62.8306 23.3613 63.2186 23.8307 63.7144 24.1607C64.2104 24.4907 64.7923 24.6667 65.3872 24.6667C65.7947 24.6776 66.2 24.6036 66.5777 24.4495C66.9553 24.2953 67.297 24.0644 67.5812 23.7712C67.8654 23.4779 68.0861 23.1287 68.229 22.7456C68.3721 22.3625 68.4346 21.9539 68.4124 21.5453Z" fill="#010032"/>
<path d="M88.0848 14.9453V27.4787C88.0848 31.9133 84.6385 33.788 81.1404 33.788C79.9088 33.8805 78.6755 33.6308 77.5758 33.0664C76.4763 32.5019 75.5528 31.6444 74.9067 30.588L78.2733 28.6347C78.5449 29.1853 78.9776 29.6396 79.5134 29.9368C80.0494 30.2339 80.6629 30.3597 81.2719 30.2973C81.6612 30.3515 82.0576 30.3171 82.4319 30.1967C82.806 30.0763 83.1485 29.8729 83.4339 29.6019C83.7193 29.3307 83.9402 28.9987 84.0805 28.6301C84.2207 28.2617 84.2765 27.8664 84.2439 27.4733V26.2667C83.7818 26.834 83.1938 27.2848 82.5267 27.5828C81.8597 27.8808 81.1324 28.0177 80.403 27.9827C78.6676 27.9277 77.0217 27.1973 75.8135 25.9459C74.6053 24.6945 73.9297 23.0204 73.9297 21.278C73.9297 19.5356 74.6053 17.8615 75.8135 16.6101C77.0217 15.3587 78.6676 14.6283 80.403 14.5733C81.1324 14.5383 81.8597 14.6752 82.5267 14.9732C83.1938 15.2712 83.7818 15.722 84.2439 16.2893V14.9427L88.0848 14.9453ZM84.2452 21.28C84.2718 20.6419 84.1073 20.0103 83.7732 19.4667C83.4391 18.9229 82.9504 18.4921 82.3702 18.2296C81.79 17.9669 81.1449 17.8847 80.5177 17.9932C79.8905 18.1017 79.31 18.3961 78.8509 18.8387C78.3918 19.2811 78.0752 19.8512 77.9417 20.4757C77.8083 21.1003 77.8641 21.7507 78.1022 22.3431C78.3401 22.9355 78.7493 23.4429 79.2771 23.8C79.8048 24.1571 80.4269 24.3475 81.0633 24.3467C81.478 24.3757 81.8939 24.3173 82.2847 24.1752C82.6754 24.0331 83.0321 23.8103 83.3319 23.5215C83.6316 23.2325 83.8678 22.8839 84.0251 22.4977C84.1824 22.1117 84.2575 21.6969 84.2452 21.28Z" fill="#010032"/>
<path d="M90.3185 21.5453C90.3131 20.1605 90.7171 18.8051 91.4799 17.6509C92.2424 16.4968 93.3292 15.5957 94.6025 15.062C95.8758 14.5281 97.2783 14.3856 98.6323 14.6524C99.9864 14.9192 101.231 15.5832 102.209 16.5605C103.187 17.5377 103.853 18.7843 104.125 20.1421C104.396 21.5 104.259 22.9081 103.733 24.1881C103.206 25.468 102.312 26.5624 101.165 27.3323C100.018 28.1023 98.6695 28.5133 97.2895 28.5133C96.3736 28.5239 95.4646 28.3509 94.6161 28.0048C93.7674 27.6587 92.996 27.1463 92.347 26.4976C91.6979 25.8488 91.1842 25.0767 90.836 24.2264C90.4877 23.3761 90.3118 22.4647 90.3185 21.5453ZM100.315 21.5453C100.298 20.9484 100.107 20.3696 99.7644 19.8812C99.4219 19.3929 98.9436 19.0167 98.3893 18.7997C97.8349 18.5827 97.2291 18.5344 96.6477 18.6611C96.0662 18.7877 95.5348 19.0835 95.1199 19.5116C94.7051 19.9396 94.425 20.4809 94.315 21.0679C94.205 21.6547 94.2698 22.2611 94.5014 22.8112C94.733 23.3613 95.1209 23.8307 95.6168 24.1607C96.1127 24.4907 96.6945 24.6667 97.2895 24.6667C97.697 24.6776 98.1024 24.6036 98.4799 24.4495C98.8577 24.2953 99.1994 24.0644 99.4836 23.7712C99.7677 23.4779 99.9884 23.1287 100.131 22.7456C100.274 22.3625 100.337 21.9539 100.315 21.5453Z" fill="#010032"/>
<path d="M106.102 11.408C106.102 10.9381 106.24 10.4787 106.501 10.088C106.761 9.69724 107.131 9.39269 107.563 9.21287C107.996 9.03303 108.472 8.98597 108.931 9.07765C109.39 9.16933 109.812 9.39563 110.143 9.72792C110.474 10.0602 110.7 10.4836 110.791 10.9445C110.882 11.4054 110.836 11.8831 110.656 12.3173C110.477 12.7514 110.174 13.1225 109.784 13.3836C109.395 13.6447 108.937 13.784 108.469 13.784C107.843 13.7777 107.245 13.5255 106.802 13.0812C106.359 12.6369 106.108 12.0362 106.102 11.408ZM106.5 14.9453H110.447V28.1453H106.495L106.5 14.9453Z" fill="#010032"/>
<path d="M127.485 21.5453C127.53 22.4177 127.404 23.2905 127.112 24.1136C126.82 24.9367 126.369 25.6937 125.785 26.3413C125.201 26.9888 124.495 27.5141 123.707 27.8869C122.92 28.2596 122.067 28.4725 121.198 28.5133C120.467 28.5533 119.736 28.4296 119.058 28.1511C118.38 27.8724 117.773 27.446 117.28 26.9027V33.424H113.334V14.9453H117.28V16.1853C117.773 15.6424 118.381 15.2163 119.058 14.938C119.736 14.6596 120.467 14.536 121.198 14.576C122.067 14.6167 122.921 14.8295 123.708 15.2023C124.495 15.5751 125.202 16.1004 125.786 16.7481C126.37 17.3959 126.821 18.1532 127.113 18.9765C127.404 19.7997 127.531 20.6728 127.485 21.5453ZM123.539 21.5453C123.523 20.9276 123.327 20.3281 122.973 19.8219C122.62 19.3157 122.126 18.9253 121.553 18.6997C120.98 18.474 120.353 18.4229 119.751 18.5531C119.149 18.6831 118.599 18.9884 118.169 19.4308C117.739 19.8733 117.448 20.4331 117.334 21.0404C117.22 21.6476 117.286 22.2751 117.525 22.8445C117.765 23.414 118.166 23.8999 118.679 24.2416C119.192 24.5832 119.794 24.7655 120.41 24.7653C120.833 24.7843 121.255 24.7132 121.648 24.5569C122.042 24.4008 122.398 24.1628 122.693 23.8588C122.989 23.5547 123.217 23.1915 123.362 22.7928C123.508 22.3941 123.568 21.9689 123.539 21.5453Z" fill="#010032"/>
<path d="M139.661 24.184C139.661 27.22 137.031 28.5133 134.191 28.5133C133.043 28.6176 131.891 28.3741 130.882 27.814C129.874 27.254 129.057 26.4033 128.535 25.372L131.954 23.4187C132.092 23.8953 132.389 24.3101 132.795 24.5935C133.201 24.8769 133.693 25.012 134.186 24.976C135.132 24.976 135.606 24.6853 135.606 24.1587C135.606 22.7053 129.134 23.472 129.134 18.9053C129.134 16.0267 131.555 14.576 134.291 14.576C135.319 14.5433 136.337 14.7881 137.239 15.2848C138.141 15.7816 138.894 16.512 139.419 17.4L136.052 19.2213C135.905 18.8756 135.659 18.5811 135.345 18.3745C135.032 18.168 134.665 18.0587 134.291 18.06C133.606 18.06 133.185 18.3267 133.185 18.7987C133.19 20.304 139.661 19.3 139.661 24.184Z" fill="#010032"/>
<path d="M154.075 14.9453V28.1453H150.129V26.904C149.673 27.4517 149.095 27.8833 148.441 28.1633C147.788 28.4433 147.078 28.5637 146.369 28.5147C143.712 28.5147 141.453 26.6147 141.453 23.048V14.9453H145.399V22.468C145.366 22.7824 145.402 23.1003 145.504 23.3993C145.605 23.6985 145.771 23.9719 145.989 24.2003C146.207 24.4287 146.471 24.6067 146.765 24.722C147.057 24.8373 147.372 24.8872 147.687 24.868C149.134 24.868 150.133 24.024 150.133 22.1493V14.9493L154.075 14.9453Z" fill="#010032"/>
<path d="M176.701 20.04V28.144H172.755V20.3827C172.755 19.0627 172.124 18.2187 170.862 18.2187C169.546 18.2187 168.809 19.1427 168.809 20.7V28.144H164.864V20.3827C164.864 19.0627 164.233 18.2187 162.97 18.2187C161.655 18.2187 160.919 19.1427 160.919 20.7V28.144H156.973V14.944H160.919V16.1573C161.328 15.6191 161.864 15.1921 162.48 14.9157C163.096 14.6392 163.771 14.522 164.443 14.5747C165.118 14.5415 165.79 14.6845 166.395 14.9897C166.998 15.2948 167.512 15.7519 167.888 16.316C168.325 15.7257 168.905 15.2564 169.572 14.9519C170.238 14.6473 170.972 14.5176 171.703 14.5747C174.722 14.576 176.701 16.74 176.701 20.04Z" fill="#010032"/>
<path d="M180.038 14.864C181.654 14.864 182.966 13.5483 182.966 11.9253C182.966 10.3023 181.654 8.98666 180.038 8.98666C178.421 8.98666 177.109 10.3023 177.109 11.9253C177.109 13.5483 178.421 14.864 180.038 14.864Z" fill="#010032"/>
</svg>
